<svg width="53" height="53" viewBox="0 0 53 53" fill="none" xmlns="http://www.w3.org/2000/svg">
<path d="M12.2872 31.8867L10.4767 38.6454L3.85953 38.7854C1.88196 35.1174 0.760254 30.9208 0.760254 26.4612C0.760254 22.1488 1.80902 18.0821 3.66804 14.5013H3.66946L9.56061 15.5814L12.1413 21.4372C11.6012 23.0119 11.3068 24.7023 11.3068 26.4612C11.307 28.3702 11.6528 30.1993 12.2872 31.8867Z" fill="#FBBB00"/>
<path d="M52.3177 21.603C52.6163 23.1762 52.7721 24.8008 52.7721 26.4613C52.7721 28.3231 52.5763 30.1393 52.2034 31.8911C50.9374 37.8524 47.6295 43.0579 43.0471 46.7416L43.0457 46.7402L35.6254 46.3616L34.5753 39.8057C37.6159 38.0225 39.9922 35.2318 41.2439 31.8911H27.3379V21.603H41.4468H52.3177Z" fill="#518EF8"/>
<path d="M43.0456 46.7401L43.0471 46.7415C38.5904 50.3237 32.929 52.4671 26.7662 52.4671C16.8626 52.4671 8.25208 46.9316 3.85962 38.7855L12.2873 31.8868C14.4834 37.7481 20.1376 41.9205 26.7662 41.9205C29.6154 41.9205 32.2847 41.1503 34.5751 39.8057L43.0456 46.7401Z" fill="#28B446"/>
<path d="M43.3658 6.44237L34.941 13.3396C32.5705 11.8579 29.7684 11.0019 26.7663 11.0019C19.9876 11.0019 14.2277 15.3657 12.1416 21.4372L3.66964 14.5014H3.66821C7.99637 6.15661 16.7155 0.455322 26.7663 0.455322C33.0763 0.455322 38.8619 2.703 43.3658 6.44237Z" fill="#F14336"/>
</svg>
